<?xml version="1.0" encoding="utf-8"?>
<!-- Generator: Adobe Illustrator 24.0.2, SVG Export Plug-In . SVG Version: 6.00 Build 0)  -->
<svg version="1.1" id="Layer_1" xmlns="http://www.w3.org/2000/svg" xmlns:xlink="http://www.w3.org/1999/xlink" x="0px" y="0px"
	 viewBox="0 0 16 16" style="enable-background:new 0 0 16 16;" xml:space="preserve">
<g>
	<path d="M14,3h-2h-1V2c0-0.55-0.45-1-1-1H5C4.45,1,4,1.45,4,2v1H3H1v1h2v9c0,1.1,0.9,2,2,2h5c1.1,0,2-0.9,2-2V4h2V3z M5,2h5v1H5V2z
		 M11,13c0,0.55-0.45,1-1,1H5c-0.55,0-1-0.45-1-1V4h7V13z"/>
	<rect x="5" y="5" width="1" height="8"/>
	<rect x="7" y="5" width="1" height="8"/>
	<rect x="9" y="5" width="1" height="8"/>
</g>
</svg>
