<?xml version="1.0" encoding="utf-8"?>
<!-- Generator: Adobe Illustrator 24.0.2, SVG Export Plug-In . SVG Version: 6.00 Build 0)  -->
<svg version="1.1" id="Layer_1" xmlns="http://www.w3.org/2000/svg" xmlns:xlink="http://www.w3.org/1999/xlink" x="0px" y="0px"
	 viewBox="0 0 16 16" style="enable-background:new 0 0 16 16;" xml:space="preserve">
<style type="text/css">
	.st0{fill-rule:evenodd;clip-rule:evenodd;}
	.st1{display:none;}
	.st2{display:inline;fill-rule:evenodd;clip-rule:evenodd;}
	.st3{display:inline;opacity:0.2;fill-rule:evenodd;clip-rule:evenodd;enable-background:new    ;}
	.st4{display:inline;opacity:0.1;fill-rule:evenodd;clip-rule:evenodd;enable-background:new    ;}
</style>
<g>
	<g>
				<path d="M6.65,3l0.69,1.43L7.61,5h0.63h5.67C13.95,5.06,14,5.16,14,5.29v8.53c0,0.09-0.02,0.15-0.04,0.18H2.04
					C2.02,13.97,2,13.91,2,13.82V3.18C2,3.09,2.02,3.03,2.04,3H6.65 M7.28,2H1.97C1.43,2,1,2.53,1,3.18v10.65
					C1,14.47,1.43,15,1.96,15h12.08c0.53,0,0.96-0.53,0.96-1.18V5.29C15,4.64,14.57,4,14.03,4H8.24L7.28,2L7.28,2z"/>
	</g>
	<rect x="2" y="6" class="st0" width="12" height="1"/>
	<g class="st1">
		<rect x="2" y="10" class="st2" width="6" height="0.98"/>
		<rect x="6" y="9" class="st2" width="1" height="1"/>
		<rect x="6" y="11" class="st2" width="1" height="1"/>
		<rect x="5" y="8" class="st2" width="1" height="1"/>
		<rect x="5" y="12" class="st2" width="1" height="1"/>
		<rect x="7" y="9" class="st3" width="1" height="1"/>
		<rect x="8" y="10" class="st4" width="1" height="1"/>
		<rect x="7" y="11" class="st3" width="1" height="1"/>
		<rect x="6" y="8" class="st3" width="1" height="1"/>
		<rect x="6" y="12" class="st3" width="1" height="1"/>
	</g>
</g>
</svg>
