<?xml version="1.0" encoding="utf-8"?>
<!-- Generator: Adobe Illustrator 24.0.2, SVG Export Plug-In . SVG Version: 6.00 Build 0)  -->
<svg version="1.1" id="Layer_1" xmlns="http://www.w3.org/2000/svg" xmlns:xlink="http://www.w3.org/1999/xlink" x="0px" y="0px"
	 viewBox="0 0 16 16" style="enable-background:new 0 0 16 16;" xml:space="preserve">
<style type="text/css">
	.st0{fill:#FFFFFF;}
	.st1{fill:#010101;}
</style>
<g id="thumbnail">
	<g>
		<rect x="2.5" y="2.5" class="st0" width="4" height="4"/>
		<path class="st1" d="M6,3v3H3V3H6 M7,2H2v5h5V2L7,2z"/>
	</g>
	<g>
		<rect x="8.5" y="2.5" class="st0" width="4" height="4"/>
		<path class="st1" d="M12,3v3H9V3H12 M13,2H8v5h5V2L13,2z"/>
	</g>
	<g>
		<rect x="2.5" y="8.5" class="st0" width="4" height="4"/>
		<path class="st1" d="M6,9v3H3V9H6 M7,8H2v5h5V8L7,8z"/>
	</g>
	<g>
		<rect x="8.5" y="8.5" class="st0" width="4" height="4"/>
		<path class="st1" d="M12,9v3H9V9H12 M13,8H8v5h5V8L13,8z"/>
	</g>
</g>
</svg>
