<?xml version="1.0" encoding="UTF-8" standalone="no"?>
<svg
   version="1.0"
   width="260.000000pt"
   height="260.000000pt"
   viewBox="0 0 260.000000 260.000000"
   preserveAspectRatio="xMidYMid meet"
   id="svg8"
   sodipodi:docname="safari-pinned-tab.svg"
   inkscape:version="1.1.1 (3bf5ae0d25, 2021-09-20)"
   xmlns:inkscape="http://www.inkscape.org/namespaces/inkscape"
   xmlns:sodipodi="http://sodipodi.sourceforge.net/DTD/sodipodi-0.dtd"
   xmlns="http://www.w3.org/2000/svg"
   xmlns:svg="http://www.w3.org/2000/svg">
  <defs
     id="defs12" />
  <sodipodi:namedview
     id="namedview10"
     pagecolor="#ffffff"
     bordercolor="#666666"
     borderopacity="1.0"
     inkscape:pageshadow="2"
     inkscape:pageopacity="0.0"
     inkscape:pagecheckerboard="0"
     inkscape:document-units="pt"
     showgrid="false"
     inkscape:zoom="0.84"
     inkscape:cx="15.47619"
     inkscape:cy="173.21429"
     inkscape:window-width="1920"
     inkscape:window-height="1017"
     inkscape:window-x="-8"
     inkscape:window-y="-8"
     inkscape:window-maximized="1"
     inkscape:current-layer="svg8" />
  <metadata
     id="metadata2">
Created by potrace 1.11, written by Peter Selinger 2001-2013
</metadata>
  <path
     d="m 223.29265,124.03698 c -2.10599,-12.44834 -11.63873,-62.67865 -14.02488,-74.60941 -0.11397,-0.57221 -0.17095,-0.63631 -0.38939,-0.85712 -0.8025,-0.80726 -3.2124,-1.39371 -6.06154,-1.39371 -2.84913,0 -5.25666,0.58645 -6.06154,1.39371 -0.21843,0.22081 -0.23743,0.28729 -0.35614,0.85712 -1.63351,7.90398 -8.92967,48.47333 -12.33202,63.07515 -1.45543,6.24437 -3.93656,9.53038 -11.8073,9.53038 -8.70412,0 -13.3031,-4.03865 -14.91999,-13.33872 C 154.53582,92.5469 144.28367,24.34802 141.12351,8.73712 140.95968,7.93224 140.84809,7.36716 139.39028,6.6335 137.44337,5.65293 133.96505,5 130,5 c -3.96743,0 -7.44338,0.65293 -9.39029,1.6335 -1.45781,0.73366 -1.5694,1.29874 -1.73322,2.10362 -3.16017,15.6109 -13.41232,83.80978 -16.21634,99.95726 -1.61451,9.30007 -6.215871,13.33872 -14.919991,13.33872 -7.870742,0 -10.354242,-3.28838 -11.807311,-9.53038 C 72.530505,97.9009 65.234345,57.33155 63.600835,49.42757 c -0.11862,-0.56983 -0.13535,-0.63631 -0.35614,-0.85712 -0.8025,-0.80726 -3.2124,-1.39371 -6.06154,-1.39371 -2.84913,0 -5.25667,0.58645 -6.06155,1.39371 -0.21843,0.22081 -0.27541,0.28491 -0.38938,0.85712 -2.38615,11.93076 -11.91889,62.16107 -14.02488,74.60941 -0.30391,1.79735 -0.48198,3.85347 -0.4891,5.96421 0.005,2.11074 0.18519,4.16686 0.4891,5.96419 2.10599,12.44836 11.63873,62.67867 14.02488,74.60943 0.11397,0.57221 0.17086,0.63631 0.38938,0.85712 0.80252,0.80726 3.21242,1.39371 6.06155,1.39371 2.84914,0 5.25666,-0.58645 6.06154,-1.39371 0.21843,-0.22081 0.23743,-0.28729 0.35614,-0.85712 1.63351,-7.90398 8.92967,-48.47333 12.332013,-63.07517 1.455449,-6.24436 3.936569,-9.53274 11.807311,-9.53274 8.70412,0 13.303101,4.03865 14.919991,13.33872 2.80402,16.14748 13.05617,84.34636 16.21634,99.95726 0.16382,0.80488 0.27541,1.36996 1.73322,2.10361 C 122.55662,254.34707 126.03495,255 130,255 c 3.96742,0 7.44337,-0.65293 9.39028,-1.63351 1.45781,-0.73365 1.5694,-1.29873 1.73323,-2.10361 3.16016,-15.6109 13.41231,-83.80978 16.21634,-99.95726 1.61451,-9.30007 6.21587,-13.33872 14.91999,-13.33872 7.87074,0 10.35424,3.28838 11.8073,9.53274 3.40235,14.60184 10.69851,55.17119 12.33202,63.07517 0.11871,0.56983 0.13533,0.63631 0.35614,0.85712 0.80251,0.80726 3.21241,1.39371 6.06154,1.39371 2.84914,0 5.25666,-0.58645 6.06154,-1.39371 0.21844,-0.22081 0.27542,-0.28491 0.38939,-0.85712 2.38615,-11.93076 11.91889,-62.16107 14.02488,-74.60943 0.30391,-1.79733 0.48198,-3.85345 0.4891,-5.96419 -0.005,-2.11074 -0.18519,-4.16686 -0.4891,-5.96421 z"
     id="path2"
     style="stroke-width:0.237428" />
</svg>
